{
  "accessors": [
    {
      "bufferView": 2,
      "componentType": 5126,
      "count": 39682,
      "max": [
        2.384531021118164,
        2.312356948852539,
        4.7810587882995605
      ],
      "min": [
        -2.6644020080566406,
        -2.197427988052368,
        0.09112200140953064
      ],
      "type": "VEC3"
    },
    {
      "bufferView": 2,
      "byteOffset": 476184,
      "componentType": 5126,
      "count": 39682,
      "max": [
        0.9999604225158691,
        0.999984622001648,
        0.9999734163284302
      ],
      "min": [
        -0.9999568462371826,
        -0.9999709129333496,
        -0.9999268054962158
      ],
      "type": "VEC3"
    },
    {
      "bufferView": 3,
      "componentType": 5126,
      "count": 39682,
      "max": [
        0.9999707937240601,
        0.999994158744812,
        0.9997127056121826,
        1.0
      ],
      "min": [
        -0.9573572874069214,
        -0.9873252511024475,
        -0.9996957182884216,
        -1.0
      ],
      "type": "VEC4"
    },
    {
      "bufferView": 1,
      "componentType": 5126,
      "count": 39682,
      "max": [
        0.9999110102653503,
        0.9807490110397339
      ],
      "min": [
        9.500000305706635e-05,
        3.199999991920777e-05
      ],
      "type": "VEC2"
    },
    {
      "bufferView": 0,
      "componentType": 5125,
      "count": 233481,
      "type": "SCALAR"
    }
  ],
  "asset": {
    "extras": {
      "author": "Lassi Kaukonen (https://sketchfab.com/thesidekick)",
      "license": "CC-BY-4.0 (http://creativecommons.org/licenses/by/4.0/)",
      "source": "https://sketchfab.com/3d-models/watermelon-294b5774d94141358a7b6b1708860dde",
      "title": "Watermelon"
    },
    "generator": "Sketchfab-13.85.0",
    "version": "2.0"
  },
  "bufferViews": [
    {
      "buffer": 0,
      "byteLength": 933924,
      "name": "floatBufferViews",
      "target": 34963
    },
    {
      "buffer": 0,
      "byteLength": 317456,
      "byteOffset": 933924,
      "byteStride": 8,
      "name": "floatBufferViews",
      "target": 34962
    },
    {
      "buffer": 0,
      "byteLength": 952368,
      "byteOffset": 1251380,
      "byteStride": 12,
      "name": "floatBufferViews",
      "target": 34962
    },
    {
      "buffer": 0,
      "byteLength": 634912,
      "byteOffset": 2203748,
      "byteStride": 16,
      "name": "floatBufferViews",
      "target": 34962
    }
  ],
  "buffers": [
    {
      "byteLength": 2838660,
      "uri": "scene.bin"
    }
  ],
  "images": [
    {
      "uri": "textures/Watermelon_baseColor.jpeg"
    },
    {
      "uri": "textures/Watermelon_metallicRoughness.png"
    },
    {
      "uri": "textures/Watermelon_normal.png"
    }
  ],
  "materials": [
    {
      "doubleSided": true,
      "name": "Watermelon",
      "normalTexture": {
        "index": 2,
        "scale": 0.5958113396155111
      },
      "occlusionTexture": {
        "index": 1
      },
      "pbrMetallicRoughness": {
        "baseColorTexture": {
          "index": 0
        },
        "metallicFactor": 0.0,
        "metallicRoughnessTexture": {
          "index": 1
        },
        "roughnessFactor": 0.5078080237958821
      }
    }
  ],
  "meshes": [
    {
      "name": "Object_0",
      "primitives": [
        {
          "attributes": {
            "NORMAL": 1,
            "POSITION": 0,
            "TANGENT": 2,
            "TEXCOORD_0": 3
          },
          "indices": 4,
          "material": 0,
          "mode": 4
        }
      ]
    }
  ],
  "nodes": [
    {
      "children": [
        1
      ],
      "matrix": [
        1.0,
        0.0,
        0.0,
        0.0,
        0.0,
        2.220446049250313e-16,
        -1.0,
        0.0,
        0.0,
        1.0,
        2.220446049250313e-16,
        0.0,
        0.0,
        0.0,
        0.0,
        1.0
      ],
      "name": "Sketchfab_model"
    },
    {
      "children": [
        2
      ],
      "name": "Watermelon_SF.obj.cleaner.materialmerger.gles"
    },
    {
      "mesh": 0,
      "name": "Object_2"
    }
  ],
  "samplers": [
    {
      "magFilter": 9729,
      "minFilter": 9987,
      "wrapS": 10497,
      "wrapT": 10497
    }
  ],
  "scene": 0,
  "scenes": [
    {
      "name": "Sketchfab_Scene",
      "nodes": [
        0
      ]
    }
  ],
  "textures": [
    {
      "sampler": 0,
      "source": 0
    },
    {
      "sampler": 0,
      "source": 1
    },
    {
      "sampler": 0,
      "source": 2
    }
  ]
}
